<?xml version="1.0" encoding="UTF-8"?>
<svg id="Layer_1" xmlns="http://www.w3.org/2000/svg" version="1.1" viewBox="0 0 1080 1080">
  <!-- Generator: Adobe Illustrator 30.0.0, SVG Export Plug-In . SVG Version: 2.1.1 Build 123)  -->
  <defs>
    <style>
      .st0 {
        fill: #f7f0e1;
      }

      .st1 {
        fill: #553122;
      }
    </style>
  </defs>
  <rect class="st1" width="1080" height="1080"/>
  <g>
    <g>
      <rect class="st0" x="103.35" y="749.29" width="272.5" height="6.44"/>
      <rect class="st0" x="699.42" y="749.29" width="272.54" height="6.44"/>
    </g>
    <g>
      <path class="st0" d="M825.52,357.65c0,24.46-41.12,44.26-71.93,44.26s-58.89-12.74-68.32-30.41h-20.78c-18.29,0-35.14,6.42-48.35,17.11-8.67,7.03-15.79,15.85-20.76,25.94-5.04,10.25-7.88,21.77-7.88,33.94,0,35.1,23.6,64.77,55.76,74.02l-8.02-18.04-31.87-71.92c1.06-4.07,2.54-8.04,4.42-11.87,3.46-7.06,8.36-13.52,14.22-18.85l48.7,109.83,6.14,13.82,12.69,28.6h-25.05c-16.17,0-31.5-3.65-45.22-10.19.62-1.19,1.08-2.5,1.36-3.88.39-1.88.13-3.82-.32-5.67-.17-.72-.4-1.4-.71-2.03-1.08-2.5-2.98-4.39-5.55-5.72-1.34-.67-2.77-1.13-4.25-1.4-2.62-.47-5.28-.86-7.92-1.28-.67-.1-1.34-.18-2.14-.3.34-.4.64-.76.94-1.11.18-.22.35-.44.52-.66.34-.45.67-.91.92-1.41.4-.79.19-1.46-.55-1.93-.32-.2-.69-.35-1.06-.45-1.33-.37-2.66-.22-3.98-.08-1.56.15-3.13.35-4.71.4-1.75.08-3.5.07-5.25.02-.39,0-.79-.02-1.18-.03-1.7-.03-3.38-.08-5.08-.18-.61-.03-1.21-.07-1.85-.34.25-.24.44-.42.62-.59,1.01-.91,2.05-1.82,3.06-2.72,1.82-1.65,3.6-3.33,5.16-5.23.37-.45.71-.91.99-1.4.61-.92,1.08-1.9,1.38-2.99.34-1.13.45-2.27.42-3.45-.08-3.01-.25-6.02-.29-9.03-.05-4.61-.64-9.16-1.36-13.68-.57-3.6-1.24-7.16-1.75-10.76-.55-4.07-1.51-8.04-2.74-11.95-.03-.1-.07-.2-.1-.29-.77-2.39-2.15-4.3-4.19-5.78-2.47-1.83-5.16-3.33-7.95-4.61-2.49-1.14-5.11-1.9-7.73-2.66-1.29-.39-2.61-.82-3.87-1.31-.34-.13-.66-.29-.96-.45-1.82-1.03-2.96-2.64-3.77-4.59-.1-.27-.12-.55-.13-.84-.08-1.71.15-3.4.67-5.03.07-.22.18-.42.34-.76.1.47.19.77.27,1.09.3,1.18.84,2.2,1.66,3.11.47.52,1.01.74,1.58.77.34.03.67,0,1.03-.07.5-.12.79-.47.81-1.01.02-.49-.03-.98-.05-1.48-.07-1.23-.18-2.45-.17-3.7.02-1.14.05-2.29.12-3.43.03-.61.07-1.21.1-1.82.13-2.22.45-4.4,1.29-6.49.13-.37.27-.72.37-1.09.44-1.73-.29-3.26-1.85-3.95,0-.07-.02-.13,0-.2.03-.27.08-.52.13-.77.44-2.17.52-4.34.05-6.52-.54-2.5-1.46-4.79-3.18-6.77-1.48-1.68-3.31-2.84-5.25-3.88-.47-.25-.96-.47-1.45-.71,0-2.02-.52-3.78-2.1-4.99.32-2.22-.05-4.14-1.92-5.56.81-1.09.62-2.27.25-3.46-.27-.89-.47-1.8-.76-2.67-.4-1.28-.84-2.54-1.28-3.8-.08-.27-.25-.49-.45-.84-.19.32-.32.49-.4.71-.3.74-.62,1.46-.86,2.24-.5,1.7-.96,3.41-1.41,5.13-.2.74-.2,1.48.15,2.19.1.18.17.37.25.54-1.78,1.33-2.27,3.51-1.88,5.53-.71.61-1.38,1.31-1.65,2.25-.27.91-.4,1.85-.62,2.84-.39.18-.86.4-1.31.66-2.15,1.13-4.19,2.44-5.68,4.44-2.52,3.4-3.38,7.21-2.87,11.38.1.79.25,1.56.39,2.37-1.14.24-1.58,1.04-1.88,2-.24.82-.1,1.61.15,2.42.4,1.28.89,2.54,1.09,3.85.27,1.63.42,3.26.52,4.93.02.25.03.52.05.77.12,2.12.17,4.27-.08,6.4-.05.4-.1.82-.12,1.23,0,.87.37,1.24,1.24,1.36.24.03.45.03.67,0,.66-.03,1.19-.35,1.66-.89.82-.96,1.33-2.07,1.63-3.29.05-.22.1-.44.18-.72.08.15.13.2.17.27.64,1.71.89,3.5.86,5.31,0,.37-.07.77-.22,1.13-.81,1.9-1.97,3.41-3.65,4.4-.5.3-1.08.54-1.68.74-2.2.72-4.4,1.43-6.62,2.1-3.88,1.16-7.45,3.01-10.83,5.19-.99.64-1.9,1.43-2.81,2.19-1.11.92-1.9,2.1-2.39,3.46-1.14,3.21-2.15,6.46-2.71,9.82-.87,5.31-1.73,10.64-2.57,15.95-.47,3.06-.87,6.12-1.01,9.21-.07,1.5-.1,2.99-.17,4.49-.07,2.47-.18,4.94-.24,7.41-.03,2.15.45,4.19,1.56,6.07.86,1.4,1.9,2.64,3.08,3.77,1.11,1.08,2.25,2.13,3.4,3.19,1.04.94,2.08,1.88,3.13,2.84.15.15.3.32.5.52-.34.08-.55.15-.79.18-.99.1-2,.25-2.99.27-1.04.02-2.08.05-3.13.07-2.05.02-4.1.02-6.15,0-1.41-.02-2.82-.18-4.24-.32-1.28-.13-2.56-.39-3.85-.17-.62.08-1.26.25-1.83.54-.87.42-1.08,1.21-.66,2.08.18.37.42.71.67,1.04.25.32.5.62.77.94.17.2.34.4.5.61.12.13.22.3.35.5-.22.05-.37.1-.52.12-1.66.22-3.31.44-4.98.67-2.27.3-4.54.66-6.72,1.4-3.77,1.28-6.42,3.5-7.73,6.86-.4.99-.67,2.07-.82,3.26-.1.79-.15,1.58-.17,2.39-.05,1.41.2,2.77.81,4.05.24.5.49,1.01.74,1.51-13.72,6.54-29.07,10.2-45.24,10.2h-25.05l12.69-28.6,6.15-13.82,48.7-109.83c5.87,5.33,10.74,11.78,14.22,18.83,1.88,3.85,3.35,7.82,4.42,11.89l-31.89,71.9-8,18.06c32.14-9.25,55.75-38.92,55.75-74.02,0-12.17-2.82-23.69-7.87-33.94-4.98-10.09-12.1-18.91-20.76-25.94-13.23-10.69-30.06-17.11-48.37-17.11h-12.34c-.17.37-.37.74-.57,1.11-1.01,1.8-2.2,3.48-3.55,5.03l-6.19,5.41c-2.3,1.65-4.76,3.06-7.35,4.25-15.42,7.09-31.67,6.47-48.23,4.64-13.6-1.46-92.76-9.35-92.76-9.35-1.46,0-1.46-2.82,0-2.82l92.86-.59c4.96,0,4.96-6.51,0-6.51l-92.86-5.9c-1.46,0-1.46-2.82,0-2.82l92.86-2.93c2.5,0,3.75-1.66,3.7-3.36.05-1.71-1.19-3.38-3.7-3.38l-92.86-2.96c-1.46,0-1.46-2.79,0-2.79l92.86-5.93c4.96,0,4.96-6.46,0-6.46l-92.86-.66c-1.46,0-1.46-2.76,0-2.76,0,0,79.16-7.9,92.76-9.41,16.56-1.77,32.82-2.45,48.23,4.66,2.69,1.21,5.21,2.69,7.56,4.42.17.12.35.24.52.37,1.95,1.46,3.78,3.08,5.45,4.89,1.4,1.6,2.62,3.36,3.68,5.25h12.78c22.38,0,43.12,6.99,60.22,18.91l58.74-132.4,53.02,119.56,5.7,12.86c17.1-11.94,37.88-18.93,60.23-18.93h21.27c9.87-17.18,36.51-29.52,67.83-29.52s71.93,19.82,71.93,44.26Z"/>
      <path class="st0" d="M573.99,497.28c-.47,1.01-.98,2-1.51,2.96-.96,1.77-2.02,3.46-3.14,5.14-.05.08-.08.18-.13.27-.07-.02-.12-.03-.18-.05-.19-.72-.39-1.43-.57-2.15-.62-2.64-.6-5.33-.4-8,.08-1.11.19-2.22.32-3.31.52-4.77,1.4-9.48,2.37-14.17.02-.1.05-.2.07-.3.05,0,.08.02.13.02.27,1.11.55,2.24.82,3.36.87,3.78,1.77,7.56,2.64,11.36.03.17.05.35.1.52.49,1.53.13,2.94-.5,4.35Z"/>
    </g>
    <g>
      <path class="st0" d="M126.48,685.26c-.74,1.85-.88,3.42-.42,4.71.46,1.29,1.25,2.29,2.35,2.98,1.11.69,2.22,1.04,3.32,1.04h1.25v1.38h-29.64v-1.38h1.25c2.13,0,4.32-.67,6.58-2.01,2.26-1.34,4.13-3.58,5.61-6.72h9.7ZM156.26,595.65l.55,16.9-34.35,82.41h-10.11l35.87-81.17c.28-.55.76-1.59,1.45-3.12s1.43-3.25,2.22-5.19c.78-1.94,1.5-3.81,2.15-5.61.64-1.8.97-3.21.97-4.22h1.25ZM170.81,662.41v5.82h-40.72v-5.82h40.72ZM156.26,595.65l45.29,98.9h-24.93l-28.81-72.16,8.45-26.73ZM172.88,685.26h24.24c1.57,3.14,3.46,5.38,5.68,6.72,2.22,1.34,4.38,2.01,6.51,2.01h1.11v1.38h-44.05v-1.38h1.25c1.85,0,3.46-.76,4.85-2.29,1.39-1.52,1.52-3.67.42-6.44Z"/>
      <path class="st0" d="M219.01,686.51v8.86h-13.57v-1.38h1.8c2.31,0,4.32-.65,6.03-1.94,1.71-1.29,2.75-3.14,3.12-5.54h2.63ZM227.18,610.47h1.11l4.71,13.3-8.73,71.61h-9l11.91-84.91ZM224.96,688.45c-.09,1.02.23,2.19.97,3.53.74,1.34,2.03,2.01,3.88,2.01h1.94v1.38h-8.31l.83-6.93h.69ZM228.29,610.47l41,61.36-7.48,26.18-36.84-55.82,3.32-31.72ZM304.19,610.47l1.11,14.27-37.26,59.14c-1.66,3.05-2.89,5.63-3.67,7.76-.79,2.13-1.22,4.25-1.32,6.37h-1.25l-5.4-11.36,47.79-76.18ZM295.46,688.45h.83l.83,6.93h-8.31v-1.38h1.94c2.03,0,3.37-.67,4.02-2.01.65-1.34.88-2.51.69-3.53ZM305.44,610.47l12.19,84.91h-21.19l-6.79-50.56,14.54-34.35h1.25ZM313.75,686.51h2.63c.46,2.4,1.54,4.25,3.25,5.54,1.71,1.29,3.62,1.94,5.75,1.94h1.94v1.38h-13.57v-8.86Z"/>
      <path class="st0" d="M344.22,686.23c-1.02,2.49-.88,4.41.42,5.75,1.29,1.34,2.72,2.01,4.29,2.01h1.11v1.38h-27.7v-1.38h1.11c1.85,0,3.79-.58,5.82-1.73,2.03-1.15,3.69-3.16,4.99-6.03h9.97ZM370.26,608.53l.28,16.62-30.06,69.81h-10.25l32.41-69.67c.18-.55.6-1.54,1.25-2.98.65-1.43,1.34-3.05,2.08-4.85.74-1.8,1.43-3.51,2.08-5.12.65-1.62,1.02-2.88,1.11-3.81h1.11ZM382.31,668.23v5.4h-35.32v-5.4h35.32ZM370.26,608.53l41,86.15h-23.41l-25.76-60.81,8.17-25.35ZM384.39,686.23h22.85c1.39,2.86,3.09,4.87,5.12,6.03,2.03,1.16,3.97,1.73,5.82,1.73h1.11v1.38h-40.72v-1.38h1.11c1.57,0,3-.67,4.29-2.01,1.29-1.34,1.43-3.25.42-5.75Z"/>
      <path class="st0" d="M430.37,620.86h-.28c-.09-2.12-.85-3.85-2.29-5.19-1.43-1.34-3.12-2.01-5.06-2.01h-1.8v-1.38h9.97l-.55,8.59ZM430.37,686.65l.55,8.73h-9.97v-1.38h1.66c2.03,0,3.76-.71,5.19-2.15s2.19-3.16,2.29-5.19h.28ZM450.04,612.27v83.11h-20.08v-83.11h20.08ZM463.62,612.27c3.79,0,7.48.39,11.08,1.18,3.6.79,6.83,2.03,9.7,3.74,2.86,1.71,5.15,4.02,6.86,6.93,1.71,2.91,2.56,6.53,2.56,10.87,0,3.23-.67,6.44-2.01,9.63-1.34,3.19-3.42,5.93-6.23,8.24-2.82,2.31-6.49,3.83-11.01,4.57,2.68.83,5.24,2.45,7.69,4.85,2.45,2.4,4.36,4.66,5.75,6.79.37.74,1.02,1.92,1.94,3.53.92,1.62,2.1,3.46,3.53,5.54,1.43,2.08,2.93,4.22,4.5,6.44,1.85,2.49,3.46,4.41,4.85,5.75,1.38,1.34,2.82,2.29,4.29,2.84,1.48.55,3.19.83,5.12.83v1.38h-11.63c-4.99,0-9.21-.37-12.67-1.11-3.46-.74-6.46-2.1-9-4.09-2.54-1.98-4.87-4.69-7-8.1-.83-1.2-1.71-2.65-2.63-4.36-.92-1.71-1.85-3.44-2.77-5.19-.92-1.75-1.73-3.46-2.42-5.12s-1.18-3.05-1.45-4.16c-1.2-2.95-2.56-5.1-4.09-6.44-1.52-1.34-2.93-2.01-4.22-2.01v-1.25h3.46c1.94,0,3.85-.35,5.75-1.04,1.89-.69,3.62-2.03,5.19-4.02,1.57-1.98,2.72-4.92,3.46-8.8.18-.55.35-1.34.48-2.35.14-1.01.16-2.17.07-3.46-.19-3.42-.81-6.16-1.87-8.24-1.06-2.08-2.38-3.65-3.95-4.71-1.57-1.06-3.16-1.8-4.78-2.22-1.62-.42-3.03-.62-4.22-.62-1.76-.09-3.35-.12-4.78-.07-1.43.05-2.52.02-3.25-.07-.09,0-.23-.48-.42-1.45-.19-.97-.46-2.38-.83-4.22h14.96ZM449.76,686.65h.28c0,2.31.81,4.11,2.42,5.4,1.61,1.29,3.35,1.94,5.19,1.94h1.39v1.38h-9.97l.69-8.73Z"/>
      <path class="st0" d="M527.05,686.23c-1.02,2.49-.88,4.41.42,5.75,1.29,1.34,2.72,2.01,4.29,2.01h1.11v1.38h-27.7v-1.38h1.11c1.85,0,3.79-.58,5.82-1.73,2.03-1.15,3.69-3.16,4.99-6.03h9.97ZM553.09,608.53l.28,16.62-30.06,69.81h-10.25l32.41-69.67c.18-.55.6-1.54,1.25-2.98.64-1.43,1.34-3.05,2.08-4.85.74-1.8,1.43-3.51,2.08-5.12.65-1.62,1.01-2.88,1.11-3.81h1.11ZM565.14,668.23v5.4h-35.32v-5.4h35.32ZM553.09,608.53l41,86.15h-23.41l-25.76-60.81,8.17-25.35ZM567.22,686.23h22.85c1.39,2.86,3.09,4.87,5.12,6.03,2.03,1.16,3.97,1.73,5.82,1.73h1.11v1.38h-40.72v-1.38h1.11c1.57,0,3-.67,4.29-2.01,1.29-1.34,1.43-3.25.42-5.75Z"/>
      <path class="st0" d="M615.7,621.41h-22.99c-1.38-2.86-3.07-4.87-5.06-6.03-1.99-1.15-3.9-1.73-5.75-1.73h-.97v-1.38h40.58v1.25h-1.11c-1.48,0-2.86.69-4.16,2.08-1.29,1.38-1.48,3.32-.55,5.82ZM629.27,697.17l-40.72-84.21h23.55l25.21,58.73-8.03,25.49ZM629.27,697.17l-.55-16.21,30.06-68.29h10.11l-32,67.59c-.19.46-.6,1.41-1.25,2.84-.65,1.43-1.34,3.05-2.08,4.85-.74,1.8-1.41,3.53-2.01,5.19-.6,1.66-.95,3-1.04,4.02h-1.25ZM654.9,621.41c1.02-2.49.9-4.43-.35-5.82-1.25-1.38-2.7-2.08-4.36-2.08h-.97v-1.25h27.56v1.38h-1.11c-1.85,0-3.79.58-5.82,1.73-2.03,1.16-3.74,3.16-5.12,6.03h-9.83Z"/>
      <path class="st0" d="M677.47,686.23c-1.02,2.49-.88,4.41.42,5.75,1.29,1.34,2.72,2.01,4.29,2.01h1.11v1.38h-27.7v-1.38h1.11c1.85,0,3.79-.58,5.82-1.73,2.03-1.15,3.69-3.16,4.99-6.03h9.97ZM703.51,608.53l.28,16.62-30.06,69.81h-10.25l32.41-69.67c.18-.55.6-1.54,1.25-2.98.64-1.43,1.34-3.05,2.08-4.85.74-1.8,1.43-3.51,2.08-5.12.65-1.62,1.01-2.88,1.11-3.81h1.11ZM715.57,668.23v5.4h-35.32v-5.4h35.32ZM703.51,608.53l41,86.15h-23.41l-25.76-60.81,8.17-25.35ZM717.64,686.23h22.85c1.39,2.86,3.09,4.87,5.12,6.03,2.03,1.16,3.97,1.73,5.82,1.73h1.11v1.38h-40.72v-1.38h1.11c1.57,0,3-.67,4.29-2.01,1.29-1.34,1.43-3.25.42-5.75Z"/>
      <path class="st0" d="M741.88,610.05c.83.28,2.05.58,3.67.9,1.61.33,3.42.6,5.4.83,1.98.23,3.81.35,5.47.35l-14.54,1.38v-3.46ZM822.22,612.13v5.54h-80.34v-5.54h80.34ZM756.01,617.25v.42c-4.06.09-7.18,1.29-9.35,3.6-2.17,2.31-3.25,5.45-3.25,9.42v1.25h-1.52v-14.68h14.13ZM772.22,686.65v8.73h-9.28v-1.38h1.39c2.12,0,3.9-.71,5.33-2.15s2.19-3.16,2.29-5.19h.28ZM792.02,612.68v82.69h-20.08v-82.69h20.08ZM791.61,686.65h.42c0,2.03.76,3.76,2.29,5.19,1.52,1.43,3.3,2.15,5.33,2.15h1.52v1.38h-9.56v-8.73ZM822.22,610.05v3.46l-14.68-1.38c1.75,0,3.65-.11,5.68-.35,2.03-.23,3.88-.51,5.54-.83,1.66-.32,2.82-.62,3.46-.9ZM822.22,617.25v14.68h-1.52v-1.25c.09-3.97-.99-7.11-3.25-9.42-2.26-2.31-5.38-3.51-9.35-3.6v-.42h14.13Z"/>
      <path class="st0" d="M838.98,620.99h-.42c0-2.12-.74-3.88-2.22-5.26-1.48-1.39-3.23-2.08-5.26-2.08h-1.66v-1.38h9.56v8.73ZM838.98,686.65v8.73h-9.56v-1.38h1.66c2.03,0,3.79-.71,5.26-2.15,1.48-1.43,2.22-3.16,2.22-5.19h.42ZM858.51,612.27v83.11h-19.95v-83.11h19.95ZM896.18,651.19v5.54h-38.92v-5.54h38.92ZM858.23,620.99v-8.73h9.42v1.38h-1.52c-2.03,0-3.79.69-5.26,2.08-1.48,1.38-2.26,3.14-2.35,5.26h-.28ZM858.23,686.65h.28c.09,2.03.88,3.76,2.35,5.19,1.48,1.43,3.23,2.15,5.26,2.15h1.52v1.38h-9.42v-8.73ZM895.35,620.99h-.28c-.09-2.12-.85-3.88-2.29-5.26-1.43-1.39-3.21-2.08-5.33-2.08h-1.52v-1.38h9.42v8.73ZM895.35,686.65v8.73h-9.42v-1.38h1.52c2.12,0,3.9-.71,5.33-2.15s2.19-3.16,2.29-5.19h.28ZM914.88,612.27v83.11h-19.81v-83.11h19.81ZM914.46,686.65h.42c.09,2.03.85,3.76,2.29,5.19,1.43,1.43,3.21,2.15,5.33,2.15h1.52v1.38h-9.56v-8.73ZM914.6,620.99v-8.73h9.56v1.38h-1.52c-2.13,0-3.93.69-5.4,2.08-1.48,1.38-2.22,3.14-2.22,5.26h-.42Z"/>
      <path class="st0" d="M942.72,620.99h-.42c0-2.12-.79-3.88-2.35-5.26-1.57-1.39-3.42-2.08-5.54-2.08h-1.8v-1.38h10.11v8.73ZM942.72,686.65v8.73h-10.11v-1.38h1.8c2.12,0,3.97-.71,5.54-2.15,1.57-1.43,2.35-3.16,2.35-5.19h.42ZM962.25,612.27v83.11h-19.95v-83.11h19.95ZM961.97,620.99v-8.73h9.97l-.14,1.38h-1.52c-2.22,0-4.09.69-5.61,2.08-1.52,1.38-2.33,3.14-2.42,5.26h-.28ZM961.97,686.65h.28c.09,2.03.9,3.76,2.42,5.19,1.52,1.43,3.39,2.15,5.61,2.15h1.66v1.38h-9.97v-8.73Z"/>
    </g>
    <g>
      <path class="st0" d="M406.49,766.12l12.31-30.23h3.71l-12.13,30.23h-3.89ZM412.32,757.52v-3.28h16.8v3.28h-16.8ZM431.06,766.12l-12.13-30.23h3.67l12.31,30.23h-3.84Z"/>
      <path class="st0" d="M450.49,766.76c-2.27,0-4.28-.48-6.02-1.45-1.74-.96-3.1-2.3-4.08-4.02-.98-1.71-1.47-3.69-1.47-5.94v-19.47h3.67v19.47c0,1.58.34,2.99,1.01,4.21.68,1.22,1.62,2.17,2.83,2.85,1.21.68,2.59,1.02,4.15,1.02s2.99-.34,4.21-1.02c1.22-.68,2.17-1.63,2.85-2.85.68-1.22,1.01-2.63,1.01-4.21v-19.47h3.63v19.47c0,2.25-.49,4.22-1.47,5.94-.98,1.71-2.36,3.05-4.15,4.02-1.79.96-3.84,1.45-6.17,1.45Z"/>
      <path class="st0" d="M475.58,766.12v-26.9h-9.63v-3.32h22.89v3.32h-9.63v26.9h-3.63Z"/>
      <path class="st0" d="M493.32,766.12v-30.23h3.67v30.23h-3.67ZM496.56,752.21v-3.33h18.31v3.33h-18.31ZM514.1,766.12v-30.23h3.63v30.23h-3.63Z"/>
      <path class="st0" d="M525.75,766.12v-30.23h17.88v3.32h-14.21v9.76h12.96v3.28h-12.96v10.54h14.29v3.33h-17.96Z"/>
      <path class="st0" d="M551.32,766.12v-30.23h3.71l18.01,24.27v-24.27h3.67v30.23h-3.67l-18.05-24.4v24.4h-3.67Z"/>
      <path class="st0" d="M590.83,766.12v-26.9h-9.63v-3.32h22.89v3.32h-9.63v26.9h-3.63Z"/>
      <path class="st0" d="M608.57,766.12v-30.23h3.67v30.23h-3.67Z"/>
      <path class="st0" d="M633.01,766.63c-2.88,0-5.43-.67-7.64-2.01-2.22-1.34-3.96-3.18-5.22-5.53-1.27-2.35-1.9-5.04-1.9-8.1s.63-5.75,1.88-8.1c1.25-2.35,2.98-4.19,5.18-5.53,2.2-1.34,4.73-2.01,7.58-2.01,1.81,0,3.55.32,5.22.97,1.67.65,3.17,1.55,4.49,2.72,1.32,1.17,2.35,2.51,3.07,4.04l-3.15,1.6c-.58-1.21-1.37-2.26-2.38-3.15-1.01-.89-2.13-1.59-3.37-2.09s-2.53-.76-3.89-.76c-2.1,0-3.99.53-5.66,1.58s-2.97,2.5-3.91,4.34c-.94,1.84-1.4,3.97-1.4,6.39s.47,4.56,1.42,6.43c.95,1.87,2.27,3.33,3.95,4.38,1.68,1.05,3.59,1.58,5.72,1.58,1.38,0,2.69-.28,3.93-.84,1.24-.56,2.35-1.33,3.35-2.31.99-.98,1.78-2.1,2.35-3.37l3.2,1.6c-.75,1.58-1.78,3-3.09,4.23-1.31,1.24-2.81,2.2-4.49,2.89-1.68.69-3.43,1.04-5.25,1.04Z"/>
      <path class="st0" d="M661.08,766.63c-1.67,0-3.15-.18-4.45-.54-1.3-.36-2.42-.86-3.37-1.51-.95-.65-1.73-1.37-2.33-2.16-.6-.79-1.05-1.63-1.34-2.53l3.5-1.21c.43,1.27,1.3,2.37,2.61,3.3,1.31.94,2.92,1.4,4.81,1.4,2.33,0,4.16-.46,5.48-1.38,1.32-.92,1.99-2.14,1.99-3.67,0-1.41-.59-2.55-1.77-3.43-1.18-.88-2.74-1.56-4.66-2.05l-3.32-.86c-1.35-.35-2.6-.86-3.74-1.53-1.14-.68-2.04-1.54-2.72-2.59-.68-1.05-1.01-2.31-1.01-3.78,0-2.73.88-4.87,2.66-6.41s4.33-2.31,7.67-2.31c1.99,0,3.7.32,5.14.97s2.61,1.47,3.52,2.46c.91.99,1.55,2.07,1.92,3.22l-3.45,1.21c-.55-1.44-1.47-2.57-2.76-3.39-1.3-.82-2.87-1.23-4.71-1.23s-3.46.47-4.6,1.4c-1.14.94-1.71,2.21-1.71,3.82,0,1.38.45,2.44,1.34,3.17.89.73,2.06,1.27,3.5,1.62l3.33.82c2.94.69,5.19,1.83,6.76,3.43,1.57,1.6,2.35,3.32,2.35,5.16,0,1.58-.4,3.03-1.21,4.34-.81,1.31-1.99,2.35-3.56,3.11s-3.52,1.14-5.85,1.14Z"/>
    </g>
    <path class="st0" d="M523.09,499.39c-.07,1.87-.35,3.7-.89,5.48-.07.24-.15.47-.27.77-.13-.15-.24-.22-.3-.32-1.08-1.63-2.12-3.29-3.06-5.01-.49-.87-.94-1.77-1.36-2.69-.2-.44-.39-.89-.57-1.34-.35-.89-.44-1.8-.22-2.72.87-3.82,1.73-7.63,2.61-11.45.34-1.48.71-2.96,1.09-4.57.1.29.19.44.22.61.64,3.6,1.34,7.18,1.92,10.79.17,1.09.32,2.17.45,3.26.29,2.39.45,4.77.39,7.2Z"/>
    <g>
      <path class="st0" d="M120.2,839.16v-32.34h-11.58v-4h27.51v4h-11.58v32.34h-4.36Z"/>
      <path class="st0" d="M141.53,839.16v-36.34h4.41v36.34h-4.41ZM145.43,822.45v-4h22.01v4h-22.01ZM166.5,839.16v-36.34h4.36v36.34h-4.36Z"/>
      <path class="st0" d="M180.52,839.16v-36.34h21.49v4h-17.08v11.73h15.57v3.94h-15.57v12.67h17.18v4h-21.59Z"/>
      <path class="st0" d="M224.07,839.16v-36.34h21.49v4h-17.08v11.73h15.57v3.94h-15.57v12.67h17.18v4h-21.59Z"/>
      <path class="st0" d="M262.12,839.16v-32.34h-11.58v-4h27.51v4h-11.58v32.34h-4.36Z"/>
      <path class="st0" d="M283.45,839.16v-36.34h21.49v4h-17.08v11.73h15.57v3.94h-15.57v12.67h17.18v4h-21.59Z"/>
      <path class="st0" d="M314.18,839.16v-36.34h11.83c2.35,0,4.44.47,6.25,1.4s3.24,2.23,4.26,3.89c1.02,1.66,1.53,3.56,1.53,5.71s-.55,4.05-1.66,5.71c-1.11,1.66-2.61,2.97-4.52,3.92-1.9.95-4.05,1.43-6.44,1.43h-6.85v14.27h-4.41ZM318.59,820.84h8.05c1.31,0,2.49-.3,3.53-.91,1.04-.6,1.88-1.44,2.52-2.49.64-1.06.96-2.26.96-3.61,0-2.08-.72-3.76-2.15-5.06-1.44-1.3-3.3-1.95-5.58-1.95h-7.32v14.02ZM334.68,839.16l-8.72-14.9,3.48-2.28,10.07,17.18h-4.83Z"/>
      <path class="st0" d="M346.67,839.16v-36.34h4.46l21.65,29.17v-29.17h4.41v36.34h-4.41l-21.7-29.33v29.33h-4.41Z"/>
      <path class="st0" d="M382.49,839.16l14.79-36.34h4.46l-14.59,36.34h-4.67ZM389.5,828.83v-3.94h20.19v3.94h-20.19ZM412.02,839.16l-14.59-36.34h4.41l14.79,36.34h-4.62Z"/>
      <path class="st0" d="M421.99,839.16v-36.34h4.41v32.34h17.13v4h-21.54Z"/>
      <path class="st0" d="M469.12,839.16v-32.34h-11.58v-4h27.51v4h-11.58v32.34h-4.36Z"/>
      <path class="st0" d="M482.57,839.16l14.79-36.34h4.46l-14.59,36.34h-4.67ZM489.57,828.83v-3.94h20.19v3.94h-20.19ZM512.1,839.16l-14.59-36.34h4.41l14.79,36.34h-4.62Z"/>
      <path class="st0" d="M533.7,839.79c-2.01,0-3.79-.22-5.35-.65-1.56-.43-2.91-1.04-4.05-1.82s-2.08-1.64-2.8-2.6c-.73-.95-1.26-1.96-1.61-3.04l4.2-1.45c.52,1.52,1.57,2.85,3.14,3.97,1.57,1.12,3.5,1.69,5.79,1.69,2.8,0,5-.55,6.59-1.66,1.59-1.11,2.39-2.58,2.39-4.41,0-1.7-.71-3.07-2.13-4.13-1.42-1.05-3.29-1.88-5.61-2.46l-4-1.04c-1.63-.42-3.12-1.03-4.49-1.84-1.37-.81-2.46-1.85-3.27-3.12-.81-1.26-1.22-2.78-1.22-4.54,0-3.29,1.06-5.86,3.19-7.71,2.13-1.85,5.2-2.78,9.21-2.78,2.39,0,4.45.39,6.18,1.17,1.73.78,3.14,1.76,4.23,2.96,1.09,1.19,1.86,2.48,2.31,3.87l-4.15,1.45c-.66-1.73-1.76-3.09-3.32-4.07s-3.44-1.48-5.66-1.48-4.16.56-5.53,1.69c-1.37,1.12-2.05,2.66-2.05,4.59,0,1.66.54,2.93,1.61,3.82,1.07.88,2.47,1.53,4.2,1.95l4,.99c3.53.83,6.24,2.21,8.12,4.13,1.88,1.92,2.83,3.99,2.83,6.2,0,1.9-.48,3.64-1.45,5.22-.97,1.58-2.4,2.82-4.28,3.74-1.89.92-4.23,1.38-7.03,1.38Z"/>
      <path class="st0" d="M561.26,839.16v-32.34h-11.58v-4h27.51v4h-11.58v32.34h-4.36Z"/>
      <path class="st0" d="M582.59,839.16v-36.34h21.49v4h-17.08v11.73h15.57v3.94h-15.57v12.67h17.18v4h-21.59Z"/>
      <path class="st0" d="M641.61,839.79c-3.5,0-6.59-.8-9.29-2.39s-4.81-3.81-6.33-6.64c-1.52-2.84-2.28-6.09-2.28-9.76s.75-6.96,2.26-9.79c1.51-2.82,3.59-5.03,6.25-6.62,2.67-1.59,5.74-2.39,9.24-2.39s6.58.8,9.27,2.41c2.68,1.61,4.77,3.82,6.25,6.64,1.49,2.82,2.23,6.06,2.23,9.73s-.75,6.92-2.23,9.76c-1.49,2.84-3.56,5.05-6.2,6.64s-5.7,2.39-9.16,2.39ZM641.61,835.79c2.56,0,4.84-.63,6.83-1.89,1.99-1.26,3.55-3,4.67-5.22,1.12-2.21,1.69-4.78,1.69-7.68s-.57-5.42-1.71-7.66c-1.14-2.23-2.72-3.98-4.72-5.24-2.01-1.26-4.31-1.89-6.9-1.89s-4.9.63-6.9,1.89c-2.01,1.26-3.58,3.01-4.72,5.24-1.14,2.23-1.71,4.78-1.71,7.66s.57,5.47,1.71,7.68c1.14,2.21,2.73,3.95,4.78,5.22,2.04,1.26,4.38,1.89,7.01,1.89Z"/>
      <path class="st0" d="M666.42,839.16v-36.34h21.59v4h-17.18v12.41h15.16v4h-15.16v15.94h-4.41Z"/>
      <path class="st0" d="M714.75,839.16v-32.34h-11.58v-4h27.51v4h-11.58v32.34h-4.36Z"/>
      <path class="st0" d="M736.08,839.16v-36.34h11.84c2.35,0,4.44.47,6.25,1.4,1.82.93,3.24,2.23,4.26,3.89s1.53,3.56,1.53,5.71-.55,4.05-1.66,5.71-2.61,2.97-4.52,3.92c-1.9.95-4.05,1.43-6.44,1.43h-6.85v14.27h-4.41ZM740.5,820.84h8.05c1.32,0,2.49-.3,3.53-.91,1.04-.6,1.88-1.44,2.52-2.49.64-1.06.96-2.26.96-3.61,0-2.08-.72-3.76-2.15-5.06-1.44-1.3-3.3-1.95-5.58-1.95h-7.32v14.02ZM756.59,839.16l-8.72-14.9,3.48-2.28,10.07,17.18h-4.83Z"/>
      <path class="st0" d="M764.32,839.16l14.79-36.34h4.46l-14.59,36.34h-4.67ZM771.33,828.83v-3.94h20.19v3.94h-20.19ZM793.86,839.16l-14.59-36.34h4.41l14.79,36.34h-4.62Z"/>
      <path class="st0" d="M803.82,839.16v-36.34h11.06c3.43,0,6.45.77,9.06,2.31,2.61,1.54,4.66,3.68,6.15,6.41,1.49,2.73,2.23,5.88,2.23,9.45s-.74,6.66-2.23,9.4c-1.49,2.73-3.54,4.88-6.15,6.44-2.61,1.56-5.63,2.34-9.06,2.34h-11.06ZM808.24,835.11h6.64c1.83,0,3.53-.35,5.09-1.06,1.56-.71,2.93-1.72,4.13-3.04,1.19-1.32,2.13-2.83,2.8-4.54s1.01-3.54,1.01-5.48-.34-3.76-1.01-5.48-1.61-3.23-2.8-4.54c-1.19-1.31-2.57-2.33-4.13-3.04-1.56-.71-3.25-1.06-5.09-1.06h-6.64v28.24Z"/>
      <path class="st0" d="M839.54,839.16v-36.34h4.41v36.34h-4.41Z"/>
      <path class="st0" d="M860.92,839.16v-32.34h-11.58v-4h27.51v4h-11.58v32.34h-4.36Z"/>
      <path class="st0" d="M882.25,839.16v-36.34h4.41v36.34h-4.41Z"/>
      <path class="st0" d="M911.79,839.79c-3.5,0-6.59-.8-9.29-2.39s-4.81-3.81-6.33-6.64c-1.52-2.84-2.28-6.09-2.28-9.76s.75-6.96,2.26-9.79c1.51-2.82,3.59-5.03,6.25-6.62,2.67-1.59,5.74-2.39,9.24-2.39s6.58.8,9.27,2.41c2.68,1.61,4.77,3.82,6.25,6.64,1.49,2.82,2.23,6.06,2.23,9.73s-.75,6.92-2.23,9.76c-1.49,2.84-3.56,5.05-6.2,6.64s-5.7,2.39-9.16,2.39ZM911.79,835.79c2.56,0,4.84-.63,6.83-1.89,1.99-1.26,3.55-3,4.67-5.22,1.12-2.21,1.69-4.78,1.69-7.68s-.57-5.42-1.71-7.66c-1.14-2.23-2.72-3.98-4.72-5.24-2.01-1.26-4.31-1.89-6.9-1.89s-4.9.63-6.9,1.89c-2.01,1.26-3.58,3.01-4.72,5.24-1.14,2.23-1.71,4.78-1.71,7.66s.57,5.47,1.71,7.68c1.14,2.21,2.73,3.95,4.78,5.22,2.04,1.26,4.38,1.89,7.01,1.89Z"/>
      <path class="st0" d="M936.6,839.16v-36.34h4.46l21.65,29.17v-29.17h4.41v36.34h-4.41l-21.7-29.33v29.33h-4.41Z"/>
    </g>
  </g>
</svg>